<svg width="60" height="60" viewBox="0 0 60 60" fill="none" xmlns="http://www.w3.org/2000/svg">
<path d="M29.8414 17.6724C22.434 17.6724 16.2964 23.7041 16.2964 31.2173C16.2964 38.7306 22.3281 44.7623 29.8414 44.7623C37.3546 44.7623 43.3863 38.6247 43.3863 31.2173C43.3863 23.8099 37.2488 17.6724 29.8414 17.6724ZM29.8414 39.8946C25.0795 39.8946 21.1641 35.9792 21.1641 31.2173C21.1641 26.4554 25.0795 22.5401 29.8414 22.5401C34.6033 22.5401 38.5186 26.4554 38.5186 31.2173C38.5186 35.9792 34.6033 39.8946 29.8414 39.8946Z" fill="url(#paint0_linear_33_614)"/>
<path d="M43.9155 20.4237C45.6103 20.4237 46.9842 19.0498 46.9842 17.3549C46.9842 15.6601 45.6103 14.2861 43.9155 14.2861C42.2206 14.2861 40.8467 15.6601 40.8467 17.3549C40.8467 19.0498 42.2206 20.4237 43.9155 20.4237Z" fill="url(#paint1_linear_33_614)"/>
<path d="M51.8519 9.41821C49.1005 6.56107 45.1852 5.07959 40.7408 5.07959H18.9418C9.73547 5.07959 3.5979 11.2172 3.5979 20.4235V42.1166C3.5979 46.6669 5.07938 50.5822 8.04234 53.4394C10.8995 56.1907 14.709 57.5664 19.0476 57.5664H40.6349C45.1852 57.5664 48.9947 56.0849 51.746 53.4394C54.6032 50.6881 56.0847 46.7727 56.0847 42.2225V20.4235C56.0847 15.9791 54.6032 12.1695 51.8519 9.41821ZM51.4286 42.2225C51.4286 45.5029 50.2646 48.1484 48.3598 49.9473C46.455 51.7463 43.8095 52.6986 40.6349 52.6986H19.0476C15.873 52.6986 13.2275 51.7463 11.3228 49.9473C9.41801 48.0426 8.46563 45.397 8.46563 42.1166V20.4235C8.46563 17.2489 9.41801 14.6034 11.3228 12.6986C13.1217 10.8997 15.873 9.94731 19.0476 9.94731H40.8466C44.0212 9.94731 46.6667 10.8997 48.5714 12.8045C50.3704 14.7092 51.4286 17.3547 51.4286 20.4235V42.2225Z" fill="url(#paint2_linear_33_614)"/>
<defs>
<linearGradient id="paint0_linear_33_614" x1="29.8436" y1="24.8959" x2="29.8396" y2="44.7623" gradientUnits="userSpaceOnUse">
<stop stop-color="#FF9F45"/>
<stop offset="1" stop-color="#FC4F4F"/>
</linearGradient>
<linearGradient id="paint1_linear_33_614" x1="43.916" y1="15.9227" x2="43.9151" y2="20.4237" gradientUnits="userSpaceOnUse">
<stop stop-color="#FF9F45"/>
<stop offset="1" stop-color="#FC4F4F"/>
</linearGradient>
<linearGradient id="paint2_linear_33_614" x1="29.8455" y1="19.0753" x2="29.838" y2="57.5664" gradientUnits="userSpaceOnUse">
<stop stop-color="#FF9F45"/>
<stop offset="1" stop-color="#FC4F4F"/>
</linearGradient>
</defs>
</svg>
