<svg width="60" height="60" viewBox="0 0 60 60" fill="none" xmlns="http://www.w3.org/2000/svg">
<path fill-rule="evenodd" clip-rule="evenodd" d="M49.0857 11.3385C44.1631 6.41039 37.617 3.69524 30.6425 3.69238C16.272 3.69238 4.57582 15.3876 4.57021 29.7626C4.5682 34.3579 5.76877 38.8431 8.05043 42.7969L4.35156 56.3072L18.1728 52.6817C21.9809 54.7588 26.2686 55.8536 30.6322 55.8551H30.6427C30.6436 55.8551 30.6421 55.8551 30.643 55.8551C45.012 55.8551 56.7089 44.1588 56.715 29.7834C56.7175 22.8169 54.0081 16.2664 49.0857 11.3385ZM30.6426 51.4519H30.6339C26.7455 51.4504 22.9316 50.4057 19.6045 48.4313L18.8132 47.9618L10.6115 50.1131L12.8008 42.1166L12.2855 41.2966C10.1163 37.8464 8.97065 33.8586 8.97234 29.7641C8.977 17.8161 18.6984 8.09578 30.6514 8.09578C36.4394 8.09758 41.8804 10.3547 45.9718 14.4507C50.0631 18.5468 52.3151 23.9914 52.3127 29.7816C52.3079 41.7305 42.5868 51.4519 30.6426 51.4519Z" fill="url(#paint0_linear_33_619)"/>
<path fill-rule="evenodd" clip-rule="evenodd" d="M42.5292 35.2222C41.8778 34.8961 38.6749 33.3203 38.0778 33.1028C37.4806 32.8854 37.0463 32.7767 36.6121 33.4288C36.1778 34.0809 34.9293 35.5483 34.5493 35.9832C34.1693 36.4178 33.7892 36.4725 33.1379 36.1461C32.4865 35.82 30.3874 35.1322 27.8991 32.9128C25.9624 31.1853 24.655 29.0521 24.2749 28.3997C23.8949 27.7477 24.2345 27.3952 24.5606 27.0703C24.8537 26.7783 25.2121 26.3094 25.5379 25.929C25.8635 25.5487 25.9721 25.2767 26.1893 24.8423C26.4065 24.4074 26.298 24.0269 26.135 23.701C25.9721 23.3749 24.6693 20.1684 24.1265 18.8637C23.5976 17.5936 23.0606 17.7657 22.6606 17.7455C22.2812 17.7266 21.8463 17.7227 21.4121 17.7227C20.9779 17.7227 20.272 17.8857 19.675 18.5378C19.0778 19.19 17.3948 20.7662 17.3948 23.9724C17.3948 27.1791 19.7291 30.2768 20.0549 30.7115C20.3805 31.1464 24.6486 37.7263 31.1836 40.5481C32.7378 41.2194 33.9513 41.6202 34.8974 41.9204C36.458 42.4163 37.8782 42.3462 39.0006 42.1785C40.2523 41.9915 42.855 40.6026 43.3978 39.0811C43.9407 37.5592 43.9407 36.2547 43.7777 35.9831C43.6149 35.7114 43.1806 35.5483 42.5292 35.2222Z" fill="url(#paint1_linear_33_619)"/>
<defs>
<linearGradient id="paint0_linear_33_619" x1="30.5375" y1="17.7222" x2="30.5299" y2="56.3072" gradientUnits="userSpaceOnUse">
<stop stop-color="#FF9F45"/>
<stop offset="1" stop-color="#FC4F4F"/>
</linearGradient>
<linearGradient id="paint1_linear_33_619" x1="30.6359" y1="24.2772" x2="30.6326" y2="42.3035" gradientUnits="userSpaceOnUse">
<stop stop-color="#FF9F45"/>
<stop offset="1" stop-color="#FC4F4F"/>
</linearGradient>
</defs>
</svg>
