<svg width="60" height="60" viewBox="0 0 60 60" fill="none" xmlns="http://www.w3.org/2000/svg">
<path d="M45 5.625H15C12.5136 5.625 10.129 6.61272 8.37087 8.37087C6.61272 10.129 5.625 12.5136 5.625 15V45C5.625 47.4864 6.61272 49.871 8.37087 51.6291C10.129 53.3873 12.5136 54.375 15 54.375H30C30.4973 54.375 30.9742 54.1775 31.3258 53.8258C31.6775 53.4742 31.875 52.9973 31.875 52.5V37.5C31.875 37.0027 31.6775 36.5258 31.3258 36.1742C30.9742 35.8225 30.4973 35.625 30 35.625H28.125V31.875H30C30.4973 31.875 30.9742 31.6775 31.3258 31.3258C31.6775 30.9742 31.875 30.4973 31.875 30V23.4375C31.875 22.1943 32.3689 21.002 33.2479 20.1229C34.127 19.2439 35.3193 18.75 36.5625 18.75H41.25V22.5H39.375C38.3804 22.5 37.4266 22.8951 36.7234 23.5984C36.0201 24.3016 35.625 25.2554 35.625 26.25V30C35.625 30.4973 35.8225 30.9742 36.1742 31.3258C36.5258 31.6775 37.0027 31.875 37.5 31.875H40.725L39.7875 35.625H37.5C37.0027 35.625 36.5258 35.8225 36.1742 36.1742C35.8225 36.5258 35.625 37.0027 35.625 37.5V45C35.625 45.4973 35.8225 45.9742 36.1742 46.3258C36.5258 46.6775 37.0027 46.875 37.5 46.875C37.9973 46.875 38.4742 46.6775 38.8258 46.3258C39.1775 45.9742 39.375 45.4973 39.375 45V39.375H41.25C41.6783 39.3875 42.098 39.2529 42.4391 38.9936C42.7803 38.7343 43.0223 38.366 43.125 37.95L45 30.45C45.0702 30.1733 45.0763 29.8841 45.0178 29.6047C44.9593 29.3252 44.8378 29.0628 44.6625 28.8375C44.4802 28.6064 44.2459 28.4214 43.9788 28.2976C43.7117 28.1739 43.4192 28.1147 43.125 28.125H39.375V26.25H43.125C43.6223 26.25 44.0992 26.0525 44.4508 25.7008C44.8025 25.3492 45 24.8723 45 24.375V16.875C45 16.3777 44.8025 15.9008 44.4508 15.5492C44.0992 15.1975 43.6223 15 43.125 15H36.5625C34.3263 15.005 32.183 15.8955 30.6018 17.4768C29.0205 19.058 28.13 21.2013 28.125 23.4375V28.125H26.25C25.7527 28.125 25.2758 28.3225 24.9242 28.6742C24.5725 29.0258 24.375 29.5027 24.375 30V37.5C24.375 37.9973 24.5725 38.4742 24.9242 38.8258C25.2758 39.1775 25.7527 39.375 26.25 39.375H28.125V50.625H15C13.5082 50.625 12.0774 50.0324 11.0225 48.9775C9.96763 47.9226 9.375 46.4918 9.375 45V15C9.375 13.5082 9.96763 12.0774 11.0225 11.0225C12.0774 9.96763 13.5082 9.375 15 9.375H45C46.4918 9.375 47.9226 9.96763 48.9775 11.0225C50.0324 12.0774 50.625 13.5082 50.625 15V45C50.625 46.4918 50.0324 47.9226 48.9775 48.9775C47.9226 50.0324 46.4918 50.625 45 50.625H37.5C37.0027 50.625 36.5258 50.8225 36.1742 51.1742C35.8225 51.5258 35.625 52.0027 35.625 52.5C35.625 52.9973 35.8225 53.4742 36.1742 53.8258C36.5258 54.1775 37.0027 54.375 37.5 54.375H45C47.4864 54.375 49.871 53.3873 51.6291 51.6291C53.3873 49.871 54.375 47.4864 54.375 45V15C54.375 12.5136 53.3873 10.129 51.6291 8.37087C49.871 6.61272 47.4864 5.625 45 5.625Z" fill="url(#paint0_linear_33_628)"/>
<defs>
<linearGradient id="paint0_linear_33_628" x1="30.004" y1="18.6243" x2="29.9969" y2="54.375" gradientUnits="userSpaceOnUse">
<stop stop-color="#FF9F45"/>
<stop offset="1" stop-color="#FC4F4F"/>
</linearGradient>
</defs>
</svg>
