<svg width="60" height="60" viewBox="0 0 60 60" fill="none" xmlns="http://www.w3.org/2000/svg">
<g clip-path="url(#clip0_33_631)">
<path d="M59.6016 17.4375C59.6016 12.1641 55.7227 7.92187 50.9297 7.92187C44.4375 7.61719 37.8164 7.5 31.0547 7.5C30.7031 7.5 30.3516 7.5 30 7.5C29.6484 7.5 29.2969 7.5 28.9453 7.5C22.1953 7.5 15.5625 7.61719 9.07031 7.92187C4.28906 7.92187 0.410155 12.1875 0.410155 17.4609C0.117187 21.6328 -0.0117196 25.8047 -8.45466e-07 29.9766C-0.0117196 34.1484 0.117187 38.3203 0.398437 42.5039C0.398437 47.7773 4.27734 52.0547 9.05859 52.0547C15.8789 52.3711 22.875 52.5117 29.9883 52.5C37.1133 52.5234 44.0859 52.3828 50.918 52.0547C55.7109 52.0547 59.5898 47.7773 59.5898 42.5039C59.8711 38.3203 60 34.1484 59.9883 29.9648C60.0117 25.793 59.8828 21.6211 59.6016 17.4375ZM24.2578 41.4727V18.4453L41.25 29.9531L24.2578 41.4727Z" fill="url(#paint0_linear_33_631)"/>
</g>
<defs>
<linearGradient id="paint0_linear_33_631" x1="30" y1="19.5" x2="29.9951" y2="52.5025" gradientUnits="userSpaceOnUse">
<stop stop-color="#FF9F45"/>
<stop offset="1" stop-color="#FC4F4F"/>
</linearGradient>
<clipPath id="clip0_33_631">
<rect width="60" height="60" fill="white"/>
</clipPath>
</defs>
</svg>
