<svg width="171" height="24" viewBox="0 0 171 24" fill="none" xmlns="http://www.w3.org/2000/svg">
<path d="M16.8457 23L14.8561 17.2147H6.622L4.66296 23H0.5L8.51982 1.05263H12.9889L21.0087 23H16.8457ZM11.9481 8.21537C11.8665 7.92968 11.7441 7.54195 11.5808 7.05219C11.4176 6.56243 11.2543 6.06247 11.0911 5.5523C10.9482 5.02173 10.836 4.58298 10.7544 4.23607C10.6523 4.6442 10.5197 5.11355 10.3564 5.64413C10.2136 6.1747 10.0707 6.67467 9.92788 7.14402C9.80544 7.61337 9.70341 7.97049 9.62178 8.21537L7.69335 13.8476H13.846L11.9481 8.21537ZM30.4029 1.14446C33.2394 1.14446 35.3005 1.73625 36.5861 2.91984C37.8921 4.10343 38.5451 5.73596 38.5451 7.81744C38.5451 8.75615 38.4023 9.65404 38.1166 10.5111C37.8309 11.3478 37.3513 12.1028 36.6779 12.7763C36.0045 13.4497 35.1168 13.9803 34.0148 14.368C32.9333 14.7557 31.5864 14.9496 29.9743 14.9496H27.801V23H23.8829V1.14446H30.4029ZM30.158 4.38912H27.801V11.7049H29.5764C30.6375 11.7049 31.5354 11.5825 32.2701 11.3376C33.0251 11.0723 33.5965 10.6642 33.9842 10.1132C34.372 9.56221 34.5658 8.84798 34.5658 7.97049C34.5658 6.7665 34.2087 5.8686 33.4945 5.27681C32.7802 4.68501 31.6681 4.38912 30.158 4.38912ZM54.8093 23L52.8197 17.2147H44.5856L42.6265 23H38.4636L46.4834 1.05263H50.9525L58.9723 23H54.8093ZM49.9117 8.21537C49.8301 7.92968 49.7077 7.54195 49.5444 7.05219C49.3811 6.56243 49.2179 6.06247 49.0546 5.5523C48.9118 5.02173 48.7996 4.58298 48.7179 4.23607C48.6159 4.6442 48.4833 5.11355 48.32 5.64413C48.1772 6.1747 48.0343 6.67467 47.8915 7.14402C47.769 7.61337 47.667 7.97049 47.5854 8.21537L45.6569 13.8476H51.8095L49.9117 8.21537ZM95.8317 1.14446L88.2711 23H84.0775L76.5168 1.14446H80.5267L84.9346 14.521C85.0774 14.8883 85.2203 15.3679 85.3631 15.9597C85.5264 16.5311 85.6794 17.1229 85.8223 17.7351C85.9855 18.3269 86.108 18.8574 86.1896 19.3268C86.2508 18.8574 86.3528 18.3269 86.4957 17.7351C86.6589 17.1229 86.8222 16.5311 86.9855 15.9597C87.1487 15.3679 87.2916 14.8883 87.414 14.521L91.8218 1.14446H95.8317ZM111.102 23H98.6742V1.14446H111.102V4.41973H102.592V9.99075H110.551V13.266H102.592V19.6941H111.102V23ZM121.957 1.14446C123.875 1.14446 125.456 1.37913 126.701 1.84849C127.946 2.31784 128.875 3.03207 129.487 3.99119C130.099 4.92989 130.405 6.12369 130.405 7.57256C130.405 8.63371 130.201 9.5418 129.793 10.2968C129.405 11.0519 128.895 11.6845 128.262 12.1947C127.63 12.6844 126.946 13.0824 126.211 13.3885L132.486 23H128.079L122.844 14.368H119.661V23H115.743V1.14446H121.957ZM121.712 4.41973H119.661V11.1539H121.834C122.916 11.1539 123.793 11.0213 124.467 10.756C125.14 10.4907 125.63 10.103 125.936 9.59282C126.262 9.08265 126.426 8.45005 126.426 7.695C126.426 6.89914 126.252 6.26653 125.905 5.79718C125.558 5.30742 125.038 4.96051 124.344 4.75644C123.671 4.53197 122.793 4.41973 121.712 4.41973ZM153.408 11.858C153.408 14.3068 152.939 16.3576 152 18.0106C151.082 19.6635 149.745 20.9083 147.99 21.745C146.255 22.5817 144.154 23 141.684 23H135.532V1.14446H142.327C144.592 1.14446 146.551 1.55259 148.204 2.36886C149.857 3.18513 151.133 4.38912 152.031 5.98084C152.949 7.55215 153.408 9.51119 153.408 11.858ZM149.306 11.9804C149.306 10.2458 149.041 8.81737 148.51 7.695C147.98 6.57263 147.194 5.74616 146.153 5.21559C145.113 4.66461 143.837 4.38912 142.327 4.38912H139.45V19.7247H141.807C144.337 19.7247 146.215 19.0819 147.439 17.7963C148.684 16.4903 149.306 14.5516 149.306 11.9804ZM170.498 23H158.071V1.14446H170.498V4.41973H161.989V9.99075H169.947V13.266H161.989V19.6941H170.498V23Z" fill="#82E5B3"/>
<path d="M67.7542 0.868968C69.0195 0.868968 70.1622 1.06283 71.1826 1.45056C72.2029 1.83828 73.0192 2.41987 73.6314 3.19533C74.2436 3.97078 74.5497 4.9401 74.5497 6.10328C74.5497 6.98077 74.366 7.75622 73.9987 8.42964C73.6518 9.08265 73.1722 9.65404 72.56 10.1438C71.9682 10.6336 71.2948 11.0723 70.5397 11.46C71.3764 11.8682 72.1519 12.3477 72.8661 12.8987C73.5803 13.4293 74.1517 14.0619 74.5803 14.7965C75.0292 15.5108 75.2537 16.3576 75.2537 17.3371C75.2537 18.5411 74.9374 19.5921 74.3048 20.49C73.6926 21.3879 72.8253 22.0817 71.7029 22.5715C70.5806 23.0612 69.2745 23.3061 67.7848 23.3061C66.1727 23.3061 64.8055 23.0714 63.6831 22.6021C62.5607 22.1327 61.7037 21.4593 61.1119 20.5818C60.5201 19.7043 60.2242 18.6636 60.2242 17.4596C60.2242 16.4597 60.418 15.5924 60.8058 14.8577C61.2139 14.1231 61.7445 13.4905 62.3975 12.9599C63.0505 12.4089 63.7647 11.9498 64.5402 11.5825C63.8668 11.1743 63.2546 10.7152 62.7036 10.205C62.1526 9.67445 61.7139 9.08265 61.3874 8.42964C61.0813 7.75622 60.9282 6.97056 60.9282 6.07267C60.9282 4.9299 61.2343 3.97078 61.8465 3.19533C62.4791 2.41987 63.3056 1.83828 64.3259 1.45056C65.3667 1.06283 66.5094 0.868968 67.7542 0.868968ZM63.8974 17.2759C63.8974 18.1738 64.2137 18.9187 64.8463 19.5105C65.4789 20.0818 66.438 20.3675 67.7236 20.3675C68.5807 20.3675 69.2847 20.2451 69.8357 20.0002C70.4071 19.7349 70.8356 19.3676 71.1213 18.8983C71.4274 18.4289 71.5805 17.8881 71.5805 17.2759C71.5805 16.6637 71.407 16.123 71.0601 15.6536C70.7132 15.1842 70.2643 14.7659 69.7133 14.3986C69.1623 14.0313 68.5501 13.6946 67.8767 13.3885L67.4481 13.1742C66.7135 13.5007 66.0809 13.868 65.5503 14.2761C65.0197 14.6639 64.6116 15.1026 64.3259 15.5924C64.0402 16.0821 63.8974 16.6433 63.8974 17.2759ZM67.7236 3.77692C66.8257 3.77692 66.0809 4.00139 65.4891 4.45034C64.9177 4.89929 64.632 5.53189 64.632 6.34816C64.632 6.93995 64.7749 7.45012 65.0606 7.87866C65.3463 8.3072 65.7238 8.67452 66.1931 8.98062C66.6829 9.28672 67.2135 9.58262 67.7848 9.86831C68.3562 9.60302 68.8664 9.31733 69.3153 9.01123C69.7847 8.70513 70.152 8.33781 70.4173 7.90927C70.703 7.48073 70.8458 6.96036 70.8458 6.34816C70.8458 5.53189 70.55 4.89929 69.9582 4.45034C69.3868 4.00139 68.6419 3.77692 67.7236 3.77692Z" fill="white"/>
</svg>
